PathFileType	4	(X/Y/Z)	C:/Users/beibeiliu/ov580/test_trc/User1\sequence.36_training_dense_right.trc
DataRate	CameraRate	NumFrames	NumMarkers	Units	OrigDataRate	OrigDataStartFrame	OrigNumFrames
120	120	14	19	mm	120	1	246
Frame#	Time	ThumbCMC			ThumbMCP			ThumbIP			ThumbTip			IndexMCP			IndexPIP			IndexTip			MiddleMCP			MiddlePIP			MiddleTip			RingMCP			RingPIP			RingTip			PinkyMCP			PinkyPIP			PinkyTip			BackHand1			BackHand2			BackHand3	
		X0	Y0	Z0	X1	Y1	Z1	X2	Y2	Z2	X3	Y3	Z3	X4	Y4	Z4	X5	Y5	Z5	X6	Y6	Z6	X7	Y7	Z7	X8	Y8	Z8	X9	Y9	Z9	X10	Y10	Z10	X11	Y11	Z11	X12	Y12	Z12	X13	Y13	Z13	X14	Y14	Z14	X15	Y15	Z15	X16	Y16	Z16	X17	Y17	Z17	X18	Y18	Z18	
0	0	132.654	-30.2114	66.2431	102.922	-43.7982	59.7509	82.7736	-55.6454	44.8012	64.9433	-62.9486	38.5176	142.419	-52.0913	-16.5847	140.531	-61.8797	-44.7418	138.336	-68.7095	-65.5408	174.697	-51.7225	-25.0478	172.147	-59.9079	-52.0406	178.317	-70.2046	-80.5232	196.045	-54.3478	-16.2845	200.553	-58.9193	-43.9577	207.402	-66.6233	-68.8405	218.911	-64.406	6.34461	231.599	-67.6945	-7.29899	244.006	-62.6525	-21.8789	193.608	-33.6293	30.4986	195.703	-13.894	59.7301	160.939	-19.2672	44.3602	
1	0.00833333	129.327	-31.3173	62.4177	106.763	-44.4857	59.8752	83.5282	-55.9227	42.9557	63.6524	-60.6636	42.0994	141.862	-52.6031	-16.2572	137.947	-60.031	-44.0457	141.521	-69.6914	-68.6351	170.36	-50.9699	-23.9592	171.015	-60.051	-55.8071	177.102	-69.285	-82.5486	193.432	-53.8517	-18.4612	204.045	-58.4066	-40.158	205.468	-66.1181	-68.3146	217.405	-64.3667	7.21274	231.962	-67.3305	-7.97902	242.434	-63.1912	-27.2561	192.803	-34.0076	31.1782	195.516	-15.0882	60.1377	159.783	-19.1961	41.4583	
2	0.0166667	129.4	-28.5147	67.3431	106.404	-45.0882	57.6404	82.7916	-54.2336	44.1237	65.4709	-60.7415	38.9491	142.288	-51.9734	-16.8302	137.358	-58.628	-40.3768	142.172	-68.1106	-65.5378	170.709	-50.9093	-29.0238	170.644	-58.6186	-55.5817	177.358	-68.9863	-84.0864	196.248	-53.1413	-16.8725	199.981	-57.4903	-40.762	206.01	-66.0008	-67.0527	218.275	-62.6252	5.50055	230.859	-67.2367	-5.89273	240.977	-62.2877	-23.821	193.8	-33.5822	29.9433	198.636	-15.0278	57.1291	162.121	-17.7723	42.5962	
3	0.025	127.771	-28.9691	64.3077	105.038	-42.783	60.1799	82.7401	-54.2199	42.471	62.7943	-60.4301	39.2896	140.21	-50.1878	-15.4783	137.459	-58.9467	-45.0826	143.321	-67.7603	-67.8423	174.537	-49.8275	-27.1559	174.648	-58.625	-56.6949	179.56	-68.8513	-82.3076	194.795	-51.3036	-19.2712	201.79	-56.494	-45.201	204.741	-65.4471	-68.3619	217.744	-61.4372	6.20384	228.912	-65.9009	-5.38712	244.649	-60.9424	-26.7121	190.961	-30.9509	28.8111	197.046	-15.0757	60.0991	157.964	-19.1213	39.4897	
4	0.0333333	126.462	-28.2358	62.6439	105.696	-43.1505	58.6143	82.932	-53.091	43.6233	63.0436	-60.6769	38.2206	141.896	-50.077	-19.5649	137.751	-56.5255	-42.5956	143.991	-67.3181	-67.2757	169.688	-48.1665	-24.5556	172.471	-58.4575	-56.7848	176.415	-66.6874	-81.2621	193.689	-51.4719	-14.6025	198.96	-56.3862	-46.2913	205.201	-64.0015	-70.2167	218.07	-61.0425	9.12739	231.881	-64.7928	-9.47445	245.29	-61.9415	-27.303	191.607	-30.2561	31.8568	199.835	-13.1194	58.9297	163.441	-17.7171	42.6127	
5	0.0416667	127.285	-29.2941	61.9727	107.594	-44.3987	57.6397	86.7416	-53.4181	46.7531	66.1889	-60.1977	40.3797	139.026	-49.9226	-17.8472	141.868	-57.8003	-44.7686	137.991	-65.7434	-70.2417	172.362	-48.4368	-24.7279	174.941	-56.895	-53.3867	175.961	-66.3843	-79.6759	193.277	-50.8832	-18.331	202.007	-54.7792	-42.945	202.927	-63.6742	-66.6074	221.027	-61.527	6.40763	228.839	-64.6126	-7.35318	247.437	-60.2358	-27.2112	195.888	-32.2296	29.4186	197.189	-14.9668	56.7498	163.094	-19.0116	38.9985	
6	0.05	129.649	-29.3219	63.0151	104.701	-41.3687	59.6379	81.5259	-51.2582	45.6202	63.4977	-58.2102	42.6669	140.027	-49.5866	-18.0232	136.31	-56.5106	-44.7532	143.018	-65.248	-68.6623	169.526	-47.2149	-26.163	172.442	-56.3331	-53.6339	176.791	-66.6447	-81.5685	197.117	-50.0676	-17.9092	202.75	-54.7482	-42.9825	206.206	-62.865	-66.2422	217.308	-60.555	7.4072	233.376	-65.4666	-7.22484	247.485	-61.0944	-27.529	192.262	-28.9476	31.5231	194.823	-13.3668	58.9953	160.611	-18.4322	40.1123	
7	0.0583333	129.517	-26.6548	67.3111	105.201	-40.6865	59.3361	83.4133	-50.3556	46.0715	63.0831	-56.8078	40.3945	138.173	-47.7093	-18.4457	139.437	-56.8915	-46.0913	140.678	-63.3073	-71.0005	171.976	-47.6414	-27.548	173.105	-56.1351	-55.0415	180.445	-66.6845	-85.2309	197.988	-50.5907	-18.5025	204.115	-54.8573	-44.0552	203.644	-61.6556	-66.5531	217.395	-59.26	8.46332	229.014	-64.208	-5.98413	246.306	-59.212	-24.5645	191.741	-28.5888	27.1238	196.058	-11.2084	60.4227	158.869	-15.4075	42.839	
8	0.0666667	131.223	-28.9327	62.2735	105.366	-40.83	59.5916	86.0949	-50.5701	46.524	64.7436	-57.0659	41.9706	140.314	-48.1275	-19.6871	138.354	-54.2175	-44.8662	142.31	-61.4658	-66.6717	172.798	-46.34	-26.542	174.497	-56.3569	-57.3033	177.497	-64.9928	-79.777	194.385	-48.6725	-15.4744	200.506	-54.0985	-41.8092	205.99	-61.3342	-69.3227	219.489	-59.3348	6.94399	229.47	-64.8238	-9.0272	245.565	-60.8281	-21.6907	196.229	-28.1165	28.4555	199.204	-12.9955	57.5982	162.605	-16.0952	43.7137	
9	0.075	129.345	-25.6956	65.9621	104.514	-41.5752	58.5907	84.5708	-49.9197	46.1147	63.3324	-56.6237	39.4018	142.224	-46.8147	-20.3969	136.704	-53.2298	-42.1403	140.986	-61.8889	-70.3196	169.392	-45.081	-30.1481	173.507	-55.0447	-57.8652	176.064	-63.3037	-81.6074	195.176	-47.9173	-16.1535	199.29	-53.0086	-42.6675	204.02	-60.4057	-68.427	221.24	-58.9196	7.16635	230.15	-63.4225	-8.43653	242.27	-57.9709	-26.1104	190.835	-28.7505	31.218	198.477	-13.7867	56.4116	164.196	-13.907	43.0552	
10	0.0833333	131.561	-26.7621	61.5879	102.324	-40.1598	55.9673	81.3088	-50.0565	45.0365	63.1904	-58.2115	37.3871	140.448	-44.8635	-17.8151	136.906	-53.1698	-47.3753	144.27	-60.6742	-69.0305	172.219	-45.1845	-29.8091	176.239	-52.736	-55.2187	178.699	-63.7163	-82.7665	197.519	-47.9463	-20.5046	201.398	-52.1716	-44.4516	205.13	-60.1499	-69.1547	221.814	-59.288	6.42367	229.977	-62.8167	-9.5974	245.059	-56.4439	-29.0959	191.703	-27.5282	31.7289	197.944	-10.6451	58.8104	163.458	-15.673	43.4096	
11	0.0916667	131.417	-25.6387	65.573	108.37	-41.0655	55.4703	81.91	-50.6158	40.5067	61.2703	-56.7566	35.6657	139.425	-44.8933	-20.8618	140.014	-52.2239	-47.5663	142.3	-61.0495	-72.4974	170.166	-43.684	-27.4453	175.32	-52.2908	-57.5592	176.099	-62.1931	-84.4146	197.357	-47.0823	-20.3579	202.992	-52.4387	-44.6147	204.812	-60.968	-71.8392	219.254	-58.9837	0.630507	232.844	-62.2426	-12.1382	246.046	-57.3969	-27.5781	194.505	-29.0498	26.4952	198.005	-12.4397	57.5988	160.034	-16.3138	39.411	
12	0.1	129.408	-24.8969	64.3497	107.73	-40.7626	54.7952	86.0617	-49.4649	43.5095	65.62	-55.3523	36.8894	139.356	-42.639	-23.7021	140.794	-50.9571	-47.8545	139.695	-58.8293	-68.8105	170.98	-42.7795	-32.8249	177.677	-53.4096	-59.8564	179.527	-63.4091	-84.5983	196.731	-46.8714	-22.1428	205.035	-52.9445	-48.1737	203.643	-59.9379	-72.19	221.831	-58.0367	1.74486	230.49	-62.095	-12.5866	243.491	-57.8956	-30.5467	193.615	-25.8462	27.167	198.257	-13.2419	57.3556	161.64	-12.3384	42.103	
13	0.108333	133.303	-26.5034	61.3845	107.008	-41.0864	54.5673	87.2396	-49.201	40.566	66.9079	-55.4469	37.1269	143.662	-41.192	-20.8284	142.391	-48.2554	-47.9851	141.284	-57.4636	-74.8434	176.096	-40.9552	-28.1895	177.3	-50.3024	-56.3847	180.358	-63.2688	-87.0658	199.926	-46.4189	-22.9786	199.077	-51.4813	-46.9646	205.155	-59.9984	-68.7749	221.871	-57.2577	4.98691	232.672	-63.3111	-13.4973	240.575	-59.2384	-30.2902	194.054	-25.0718	30.9508	199.157	-12.8822	56.979	161.74	-11.2757	42.9595	
